<?xml version="1.0" encoding="UTF-8"?>
<!DOCTYPE svg PUBLIC "-//W3C//DTD SVG 1.1//EN" "http://www.w3.org/Graphics/SVG/1.1/DTD/svg11.dtd">
<!-- Creator: CorelDRAW 2019 (64-Bit) -->
<svg xmlns="http://www.w3.org/2000/svg" xml:space="preserve" width="239.23mm" height="59.204mm" version="1.1" style="shape-rendering:geometricPrecision; text-rendering:geometricPrecision; image-rendering:optimizeQuality; fill-rule:evenodd; clip-rule:evenodd"
viewBox="0 0 23923 5920.4"
 xmlns:xlink="http://www.w3.org/1999/xlink"
 xmlns:xodm="http://www.corel.com/coreldraw/odm/2003">
 <defs>
  <style type="text/css">
   <![CDATA[
    .fil1 {fill:#E32831}
    .fil2 {fill:#88BD2F}
    .fil3 {fill:#FEFEFE;fill-rule:nonzero}
    .fil0 {fill:#22201E;fill-rule:nonzero}
   ]]>
  </style>
 </defs>
 <g id="Слой_x0020_1">
  <metadata id="CorelCorpID_0Corel-Layer"/>
  <g id="_2389485700336">
   <path class="fil0" d="M11053.61 5023.5c-362.33,0 -661.42,-119.64 -897.28,-358.91 -235.85,-239.26 -353.77,-533.24 -353.77,-881.88 0,-348.67 117.92,-642.62 353.77,-881.89 235.86,-239.28 534.95,-358.92 897.28,-358.92 218.76,0 419.86,52.41 603.31,157.23 183.43,104.83 326.43,246.13 428.97,423.86l-276.88 160.65c-68.35,-132.16 -170.33,-237.56 -305.91,-316.17 -135.6,-78.63 -285.42,-117.94 -449.49,-117.94 -275.74,0 -500.76,88.89 -675.1,266.62 -174.33,177.75 -261.48,399.94 -261.48,666.56 0,264.34 87.15,485.38 261.48,663.12 174.34,177.75 399.36,266.62 675.1,266.62 164.07,0 313.89,-39.32 449.49,-117.93 135.58,-78.62 237.56,-182.87 305.91,-312.77l276.88 157.24c-100.26,177.75 -242.68,319.61 -427.27,425.57 -184.58,105.97 -386.25,158.94 -605.01,158.94zm1562.1 -762.25c29.62,152.68 99.69,271.16 210.21,355.49 110.52,84.31 246.68,126.46 408.48,126.46 225.6,0 389.68,-83.17 492.22,-249.52l252.94 143.56c-166.35,257.52 -417.02,386.26 -752,386.26 -271.18,0 -491.65,-84.89 -661.42,-254.66 -169.78,-169.76 -254.64,-384.54 -254.64,-644.32 0,-257.51 83.16,-471.71 249.52,-642.63 166.35,-170.89 381.7,-256.36 646.04,-256.36 250.66,0 455.17,88.31 613.55,264.92 158.37,176.6 237.56,389.1 237.56,637.49 0,43.29 -3.42,87.74 -10.24,133.31l-1432.22 0zm591.35 -755.42c-159.52,0 -291.7,45.01 -396.52,135.02 -104.82,90.01 -169.77,210.21 -194.83,360.62l1141.67 0c-25.06,-161.79 -88.87,-284.85 -191.42,-369.16 -102.54,-84.33 -222.18,-126.48 -358.9,-126.48zm2136.35 -280.3c239.27,0 443.22,87.17 611.85,261.5 168.63,174.34 252.94,386.82 252.94,637.49 0,250.66 -84.31,463.16 -252.94,637.5 -168.63,174.31 -372.58,261.48 -611.85,261.48 -282.57,0 -497.92,-112.8 -646.04,-338.39l0 977.59 -297.37 0 0 -2392.73 297.37 0 0 293.97c148.12,-225.6 363.47,-338.41 646.04,-338.41zm-37.61 1510.85c170.91,0 314.49,-58.69 430.69,-176.05 116.23,-117.34 174.34,-262.62 174.34,-435.81 0,-173.18 -58.11,-318.46 -174.34,-435.82 -116.2,-117.36 -259.78,-176.03 -430.69,-176.03 -173.18,0 -317.87,58.67 -434.1,176.03 -116.22,117.36 -174.33,262.64 -174.33,435.82 0,173.19 58.11,318.47 174.33,435.81 116.23,117.36 260.92,176.05 434.1,176.05zm2396.15 -635.78c175.47,72.91 263.2,205.09 263.2,396.5 0,141.28 -47.29,256.94 -141.86,346.95 -94.56,90 -229.58,135.01 -405.05,135.01l-854.53 0 0 -1709.09 786.17 0c170.92,0 303.08,42.73 396.51,128.2 93.42,85.44 140.15,197.67 140.15,336.68 0,164.08 -61.53,285.98 -184.59,365.75zm-365.74 -564.01l-481.97 0 0 447.79 481.97 0c173.19,0 259.78,-76.35 259.78,-229.03 0,-145.84 -86.59,-218.76 -259.78,-218.76zm64.95 1172.44c86.58,0 153.23,-20.5 199.95,-61.53 46.73,-41.02 70.09,-99.13 70.09,-174.32 0,-70.65 -23.36,-125.9 -70.09,-165.79 -46.72,-39.88 -113.37,-59.81 -199.95,-59.81l-546.92 0 0 461.45 546.92 0zm2126.09 -1439.06l239.28 0 0 1709.09 -293.97 0 0 -1199.77 -946.83 1199.77 -239.27 0 0 -1709.09 293.96 0 0 1199.79 946.83 -1199.79zm1493.73 1753.53c-257.5,0 -471.7,-86.03 -642.6,-258.06 -170.91,-172.06 -256.36,-385.7 -256.36,-640.92 0,-255.23 85.45,-468.85 256.36,-640.91 170.9,-172.05 385.1,-258.08 642.6,-258.08 168.64,0 320.18,40.46 454.63,121.36 134.44,80.89 234.71,189.7 300.8,326.43l-249.52 143.56c-43.3,-91.14 -109.97,-164.07 -199.97,-218.76 -90.01,-54.7 -191.99,-82.03 -305.94,-82.03 -170.89,0 -313.89,58.11 -428.97,174.33 -115.08,116.2 -172.61,260.92 -172.61,434.1 0,170.91 57.53,314.47 172.61,430.69 115.08,116.22 258.08,174.33 428.97,174.33 113.95,0 216.49,-26.77 307.66,-80.33 91.14,-53.55 160.65,-125.9 208.5,-217.06l252.95 146.99c-72.93,134.45 -177.76,242.13 -314.48,323.02 -136.73,80.88 -288.27,121.34 -454.63,121.34zm1787.71 -1138.25c170.91,0 312.77,50.69 425.56,152.1 112.8,101.4 169.21,233 169.21,394.8 0,161.79 -56.41,293.39 -169.21,394.8 -112.79,101.4 -254.65,152.11 -425.56,152.11l-721.23 0 0 -1709.09 297.38 0 0 615.28 423.85 0zm816.94 -615.28l297.39 0 0 1709.09 -297.39 0 0 -1709.09zm-816.94 1432.22c84.31,0 155.54,-24.5 213.63,-73.49 58.11,-48.99 87.17,-114.5 87.17,-196.55 0,-82.03 -29.06,-148.12 -87.17,-198.25 -58.09,-50.13 -129.32,-75.19 -213.63,-75.19l-423.85 0 0 543.48 423.85 0z"/>
   <path class="fil1" d="M497.24 1693.68c2773.94,0 5547.89,0 8321.83,0 0,1243.14 0,2486.29 0,3729.43 0,274.63 -222.62,497.27 -497.25,497.27l-7824.58 0c-274.62,0 -497.26,-222.64 -497.26,-497.27l0 -3232.17c0,-274.64 222.64,-497.26 497.26,-497.26z"/>
   <path class="fil2" d="M9852.85 1243.55c164.68,-220.69 248.12,-605.8 117.55,-1243.53 -1642.53,253.96 -1289.39,1143.37 -1133.13,1420.61 195.95,-320.48 590.89,-796.14 850.07,-1028.44 -170.19,247.58 -424.34,662.3 -565.63,1002.13 221.58,-253.76 481.32,-268.31 731.14,-150.77zm517.18 520.6c-842.59,-899.06 -1202.43,-279.5 -1289.77,-68.32 248.46,-11.94 497.08,19.42 734.79,92.71 -235.35,-11.79 -470.85,20.1 -694.61,93.99 143.47,244.11 529.87,693.35 1249.59,-118.38z"/>
   <path class="fil3" d="M5026.73 2622.03l216.17 0 0 216.15 -216.17 0 0 -216.15zm-3098.63 1355.28l537.16 -1355.28 357.58 0 -825.75 1945.57c-121.09,285.32 -280.29,411.73 -573.04,423.74 -135.29,5.57 -287.07,-22.91 -446.01,-79.26l0 -272.8c278.95,82.09 315.07,91.36 414.88,89.5 135.49,-2.53 250.35,-72.69 380.76,-378.03l-795.64 -1728.72 344.97 0 605.09 1355.28zm2343.06 1013.57l-297.88 0 0 -629.71c-130.88,34.48 -264.48,51.46 -401.39,51.46 -418.28,0 -666.82,-215.3 -670.21,-641.77l0 -518 296.77 0 0 527.85c0,259.06 129.78,372.18 373.44,372.18 136.91,0 270.51,-16.98 401.39,-51.47l0 -845.27 297.88 0 0 1734.73zm1186.87 0c-556.46,0 -825.99,-365.07 -825.99,-873.69 0,-443.75 287.94,-861.04 787.9,-861.04 622.91,0 741.26,455.2 741.26,949.65l-1254.28 0c8.44,304.95 228.23,541.9 560.62,541.9 200.79,0 356.69,-66.74 482.22,-215.84l188.15 136.11c-151.22,215.27 -378.04,322.91 -679.88,322.91zm-38.09 -1500.48c-290.49,0 -469.65,228.13 -502.77,481.14l969.16 0c0,-259.22 -175.52,-481.14 -466.39,-481.14zm2421.09 5.59l-582.63 0 0 1494.89 -296.79 0 0 -1494.89 -571.11 0 0 -239.84 1450.53 0 0 239.84zm-2290.66 -872.08l216.15 0 0 216.13 -216.15 0 0 -216.13z"/>
  </g>
 </g>
</svg>
