<?xml version="1.0" encoding="UTF-8"?>
<!DOCTYPE svg PUBLIC "-//W3C//DTD SVG 1.1//EN" "http://www.w3.org/Graphics/SVG/1.1/DTD/svg11.dtd">
<!-- Creator: CorelDRAW 2018 (64-Bit) -->
<svg xmlns="http://www.w3.org/2000/svg" xml:space="preserve" width="257mm" height="91.5mm" version="1.1" style="shape-rendering:geometricPrecision; text-rendering:geometricPrecision; image-rendering:optimizeQuality; fill-rule:evenodd; clip-rule:evenodd"
viewBox="0 0 25700 9150"
 xmlns:xlink="http://www.w3.org/1999/xlink">
 <defs>
  <style type="text/css">
   <![CDATA[
    .fil2 {fill:#87C65F}
    .fil0 {fill:#EB3A41}
    .fil1 {fill:#FEFEFE}
    .fil3 {fill:#FEFEFE;fill-rule:nonzero}
   ]]>
  </style>
 </defs>
 <g id="Слой_x0020_1">
  <metadata id="CorelCorpID_0Corel-Layer"/>
  <path class="fil0" d="M49.86 9122.92l0 -9095.85 9078.63 0 0 9078.59c0,17.26 -9078.63,17.26 -9078.63,17.26z"/>
  <path class="fil1" d="M5540.19 5022.3l320.46 0 0 320.46 -320.46 0 0 -320.46zm-5490.33 3510.09l0 -389.26c33.13,2.99 64.89,3.38 102.76,2.68 200.87,-3.78 371.17,-107.77 564.57,-560.48l-667.33 -1449.85 0 -1111.2 896.27 2007.38 796.37 -2009.36 530.12 0 -1224.25 2884.55c-179.52,423 -415.58,610.43 -849.57,628.22 -48.33,2.02 -98.02,1.06 -148.94,-2.68zm9078.63 -2569.93l0 355.57 -279.56 0 0 2216.34 -440.09 0 0 -2216.34 -846.72 0 0 -355.57 1566.37 0zm-4708.51 2571.91l-441.72 0 0 -933.62c-194.02,51.14 -392.08,76.32 -595.01,76.32 -620.19,0 -988.67,-319.19 -993.72,-951.5l0 -767.98 440.01 0 0 782.61c0,384.03 192.39,551.78 553.71,551.78 202.93,0 400.99,-25.18 595.01,-76.32l0 -1253.2 441.72 0 0 2571.91zm1759.68 0c-825.09,0 -1224.68,-541.23 -1224.68,-1295.33 0,-657.93 426.91,-1276.58 1168.18,-1276.58 923.56,0 1098.99,674.89 1098.99,1407.94l-1859.63 0c12.52,452.14 338.43,803.44 831.16,803.44 297.75,0 528.89,-98.94 714.95,-319.98l278.99 201.79c-224.24,319.15 -560.43,478.72 -1007.96,478.72zm-56.5 -2224.6c-430.69,0 -696.32,338.25 -745.4,713.33l1436.85 0c0,-384.3 -260.22,-713.33 -691.45,-713.33zm193.41 -1284.7l320.46 0 0 320.46 -320.46 0 0 -320.46z"/>
  <path class="fil2" d="M24752.59 3858.72c379.73,-396.95 638.69,-1139.1 535.13,-2433.6 -3313.88,103.56 -2830.6,1950.36 -2589,2537.16 466.02,-586.8 1363.57,-1432.54 1933.14,-1829.5 -397.04,448.76 -1001.1,1208.17 -1363.52,1846.77 500.51,-448.76 1018.28,-414.22 1484.25,-120.83zm897.55 1156.42c-1449.85,-1984.9 -2312.78,-845.75 -2537.2,-448.75 483.33,34.53 966.57,155.31 1432.59,362.41 -466.02,-86.28 -932.04,-69.02 -1398.06,17.27 224.42,517.82 880.28,1501.61 2502.67,69.07z"/>
  <path class="fil3" d="M10757.47 5969.76l203.9 0 604.98 -1045.74 3.43 0 0 1045.74 162.52 0 0 -1230.67 -205.66 0 -603.32 1042.27 -3.43 0 0 -1042.27 -162.42 0 0 1230.67zm2222.75 -1230.67l-162.47 0 0 513.34 -649.88 0 0 -513.34 -162.52 0 0 1230.67 162.52 0 0 -575.6 649.88 0 0 575.6 162.47 0 0 -1230.67zm1315.37 765.7l-162.51 0c-25.88,229.87 -153.82,354.34 -362.99,354.34 -255.79,0 -413.04,-191.87 -413.04,-504.73 0,-259.26 122.67,-502.96 414.84,-502.96 183.16,0 314.57,96.78 350.82,257.54l162.51 0c-24.2,-262.73 -267.96,-397.57 -509.86,-397.57 -378.59,0 -582.58,292.13 -582.58,644.71 0,394.09 219.59,642.98 570.41,642.98 304.2,0 504.77,-181.45 532.4,-494.31zm1059.58 -765.7l-988.71 0 0 141.74 413.08 0 0 1088.93 162.51 0 0 -1088.93 413.12 0 0 -141.74zm145.16 0l0 1230.67 162.43 0 0 -504.73 333.64 0c240.24,0 420.02,-93.32 420.02,-371.6 0,-255.83 -174.55,-354.34 -409.69,-354.34l-506.4 0zm162.43 139.98l290.37 0c160.75,0 300.77,27.68 300.77,224.73 0,181.45 -120.95,224.68 -278.24,224.68l-312.9 0 0 -449.41zm1261.77 769.17l-20.74 43.23c-41.47,86.42 -96.74,169.37 -183.16,169.37 -76.1,0 -115.82,-17.27 -138.31,-31.11l0 138.27c34.57,15.59 96.83,31.1 152.14,31.1 120.96,0 222.97,-69.11 326.62,-279.99l478.8 -980.02 -174.6 0 -352.58 750.15 -359.51 -750.15 -178.03 0 449.37 909.15zm746.76 -909.15l0 1230.67 155.53 0 0 -1026.72 392.38 1026.72 141.69 0 385.49 -1026.72 0 1026.72 153.86 0 0 -1230.67 -226.44 0 -382.02 1042.27 -395.85 -1042.27 -224.64 0zm2355.84 0l-852.12 0 0 1230.67 860.81 0 0 -141.74 -698.3 0 0 -425.2 644.66 0 0 -136.55 -644.66 0 0 -385.44 689.61 0 0 -141.74zm1178.81 0l-162.51 0 0 513.34 -649.89 0 0 -513.34 -162.42 0 0 1230.67 162.42 0 0 -575.6 649.89 0 0 575.6 162.51 0 0 -1230.67zm1126.94 0l-988.67 0 0 141.74 413.12 0 0 1088.93 162.43 0 0 -1088.93 413.12 0 0 -141.74zm-11348.14 2776.52l0 -495.02 946.76 0 0 -197.05 -1172.63 0 0 1710.92 797.82 0c333.99,0 526.16,-185.01 526.16,-507.01 0,-324.42 -189.75,-511.84 -526.16,-511.84l-571.95 0zm872.29 511.84c0,209.04 -124.95,309.96 -374.9,309.96l-497.39 0 0 -624.76 497.39 0c252.36,0 374.9,103.34 374.9,314.8zm980.4 60.06l-28.86 60.06c-57.69,120.16 -134.53,235.53 -254.69,235.53 -105.71,0 -160.98,-24.03 -192.26,-43.27l0 192.26c48.06,21.61 134.62,43.23 211.46,43.23 168.23,0 310,-96.13 454.15,-389.27l665.62 -1362.51 -242.7 0 -490.18 1042.93 -499.8 -1042.93 -247.49 0 624.75 1263.97zm2275.57 -1263.97l-257.06 0 -444.58 658.41 -430.12 -658.41 -271.52 0 564.65 829.06 -603.14 881.86 259.57 0 478.19 -704.06 461.36 704.06 273.93 0 -600.76 -881.86 569.48 -829.06zm454.2 1710.92l0 -1513.87 898.69 0 0 -197.05 -1124.56 0 0 1710.92 225.87 0zm1662.85 -1710.92l-254.78 0 -672.82 1710.92 240.37 0 194.59 -523.84 718.47 0 189.88 523.84 252.28 0 -667.99 -1710.92zm158.61 1006.86l-586.36 0 295.59 -790.57 290.77 790.57zm2085.76 -1006.86l-1074.16 0 -31.2 1042.93c-12.08,434.91 -100.91,502.22 -223.45,502.22 -26.49,0 -91.38,-4.83 -122.62,-24.03l0 192.21c43.28,16.83 115.37,33.66 163.39,33.66 259.53,0 384.48,-242.74 396.56,-586.36l33.57 -963.58 632.04 0 0 1513.87 225.87 0 0 -1710.92zm1571.56 0l-1374.51 0 0 197.05 574.28 0 0 1513.87 225.87 0 0 -1513.87 574.36 0 0 -197.05zm1376.87 0l-1184.7 0 0 1710.92 1196.7 0 0 -197.05 -970.79 0 0 -591.1 896.32 0 0 -189.84 -896.32 0 0 -535.88 958.79 0 0 -197.05zm293.14 0l0 1710.92 225.87 0 0 -701.64 463.82 0c333.99,0 583.85,-129.79 583.85,-516.68 0,-355.61 -242.65,-492.6 -569.44,-492.6l-704.1 0zm225.87 194.64l403.76 0c223.45,0 418.04,38.48 418.04,312.42 0,252.31 -168.18,312.37 -386.85,312.37l-434.95 0 0 -624.79zm2040.12 -194.64l-254.69 0 -672.87 1710.92 240.33 0 194.63 -523.84 718.51 0 189.8 523.84 252.36 0 -668.07 -1710.92zm158.6 1006.86l-586.27 0 295.51 -790.57 290.76 790.57z"/>
 </g>
</svg>
